<svg width="27" height="25" viewBox="0 0 27 25" fill="none" xmlns="http://www.w3.org/2000/svg">
<path d="M13.2875 5.525C12.6226 4.22445 11.5391 3.18576 10.2116 2.57642C8.8841 1.96709 7.39007 1.82263 5.97044 2.16634C4.5508 2.51006 3.28832 3.32191 2.38657 4.47098C1.48482 5.62005 0.996384 7.03935 1.00002 8.5C1.00002 17 13.5 24 13.5 24C13.5 24 26 17 26 8.5C26.0015 7.21331 25.6211 5.95512 24.907 4.8848C24.1929 3.81448 23.1772 2.98018 21.9885 2.48759C20.7998 1.99499 19.4917 1.86625 18.2298 2.11769C16.968 2.36913 15.8091 2.98942 14.9 3.9L10.9 7.9L14.9 11.9L12.9 13.9" stroke="white" stroke-width="2" stroke-linecap="round" stroke-linejoin="round"/>
</svg>
